<svg width="15" height="15" viewBox="0 0 15 15" fill="none" xmlns="http://www.w3.org/2000/svg">
<path d="M3.4375 13.75C3.1875 13.75 2.96875 13.6562 2.78125 13.4688C2.59375 13.2812 2.5 13.0625 2.5 12.8125V2.1875C2.5 1.9375 2.59375 1.71875 2.78125 1.53125C2.96875 1.34375 3.1875 1.25 3.4375 1.25H11.5625C11.8125 1.25 12.0312 1.34375 12.2188 1.53125C12.4062 1.71875 12.5 1.9375 12.5 2.1875V12.8125C12.5 13.0625 12.4062 13.2812 12.2188 13.4688C12.0312 13.6562 11.8125 13.75 11.5625 13.75H3.4375ZM3.4375 12.8125H11.5625V2.1875H10.625V5.9375C10.625 6.03125 10.5885 6.10156 10.5156 6.14844C10.4427 6.19531 10.3646 6.19271 10.2813 6.14062L9.10938 5.46875L7.9375 6.14062C7.85417 6.19271 7.77604 6.19531 7.70312 6.14844C7.63021 6.10156 7.59375 6.03125 7.59375 5.9375V2.1875H3.4375V12.8125ZM7.59375 2.1875H10.625H7.59375ZM3.4375 2.1875H11.5625H3.4375Z" fill="url(#paint0_linear_24_24)"/>
<defs>
<linearGradient id="paint0_linear_24_24" x1="7.5" y1="1.25" x2="7.5" y2="13.75" gradientUnits="userSpaceOnUse">
<stop stop-color="#91F695"/>
<stop offset="1" stop-color="#27A92D"/>
</linearGradient>
</defs>
</svg>
