<svg width="15" height="15" viewBox="0 0 15 15" fill="none" xmlns="http://www.w3.org/2000/svg">
<path d="M8.29688 13.75C8.05729 13.75 7.88281 13.6719 7.77344 13.5156C7.66406 13.3594 7.65104 13.1667 7.73438 12.9375L10.0312 6.84375C10.0938 6.67708 10.2083 6.53646 10.375 6.42188C10.5417 6.30729 10.7135 6.25 10.8906 6.25C11.0677 6.25 11.2422 6.30729 11.4141 6.42188C11.5859 6.53646 11.7031 6.67708 11.7656 6.84375L14.1094 12.875C14.2031 13.1146 14.1927 13.3203 14.0781 13.4922C13.9635 13.6641 13.7708 13.75 13.5 13.75C13.3854 13.75 13.276 13.7135 13.1719 13.6406C13.0677 13.5677 12.9948 13.474 12.9531 13.3594L12.4375 11.7812H9.4375L8.84375 13.375C8.80208 13.4792 8.72917 13.5677 8.625 13.6406C8.52083 13.7135 8.41146 13.75 8.29688 13.75ZM9.78125 10.6875H12L10.9062 7.65625H10.875L9.78125 10.6875ZM4.51562 5.34375C4.67188 5.61458 4.84375 5.8776 5.03125 6.13281C5.21875 6.38802 5.42188 6.65104 5.64062 6.92188C6.10938 6.43229 6.5 5.92448 6.8125 5.39844C7.125 4.8724 7.39062 4.32292 7.60938 3.75H1.25C1.07292 3.75 0.924479 3.6901 0.804688 3.57031C0.684896 3.45052 0.625 3.30208 0.625 3.125C0.625 2.94792 0.684896 2.79948 0.804688 2.67969C0.924479 2.5599 1.07292 2.5 1.25 2.5H5V1.875C5 1.69792 5.0599 1.54948 5.17969 1.42969C5.29948 1.3099 5.44792 1.25 5.625 1.25C5.80208 1.25 5.95052 1.3099 6.07031 1.42969C6.1901 1.54948 6.25 1.69792 6.25 1.875V2.5H10C10.1771 2.5 10.3255 2.5599 10.4453 2.67969C10.5651 2.79948 10.625 2.94792 10.625 3.125C10.625 3.30208 10.5651 3.45052 10.4453 3.57031C10.3255 3.6901 10.1771 3.75 10 3.75H8.85938C8.63021 4.46875 8.32552 5.17448 7.94531 5.86719C7.5651 6.5599 7.09896 7.21875 6.54688 7.84375L8.07812 9.39062L7.60938 10.6562L5.625 8.75L2.92188 11.4531C2.80729 11.5677 2.66667 11.625 2.5 11.625C2.33333 11.625 2.19271 11.5625 2.07812 11.4375C1.95312 11.3229 1.89062 11.1823 1.89062 11.0156C1.89062 10.849 1.95312 10.7031 2.07812 10.5781L4.82812 7.82812C4.55729 7.50521 4.30208 7.17969 4.0625 6.85156C3.82292 6.52344 3.60417 6.1875 3.40625 5.84375C3.28125 5.61458 3.27083 5.41667 3.375 5.25C3.47917 5.08333 3.66667 5 3.9375 5C4.05208 5 4.16406 5.03385 4.27344 5.10156C4.38281 5.16927 4.46354 5.25 4.51562 5.34375Z" fill="url(#paint0_linear_24_26)"/>
<defs>
<linearGradient id="paint0_linear_24_26" x1="7.39883" y1="1.25" x2="7.39883" y2="13.75" gradientUnits="userSpaceOnUse">
<stop stop-color="#91F695"/>
<stop offset="1" stop-color="#27A92D"/>
</linearGradient>
</defs>
</svg>
