<svg width="131" height="28" viewBox="0 0 131 28" fill="none" xmlns="http://www.w3.org/2000/svg">
<path d="M0.800003 27V1.23999H14.08C16.1867 1.23999 17.92 1.66665 19.28 2.51999C20.6667 3.34665 21.6933 4.47999 22.36 5.91999C23.0267 7.35999 23.36 8.95999 23.36 10.72C23.36 12.5333 22.9733 14.1467 22.2 15.56C21.4267 16.9733 20.3333 18.08 18.92 18.88C17.5067 19.68 15.84 20.08 13.92 20.08H8.32V27H0.800003ZM8.32 14.32H12.2C13.3733 14.32 14.24 13.9867 14.8 13.32C15.3867 12.6533 15.68 11.7867 15.68 10.72C15.68 9.57332 15.4133 8.66665 14.88 7.99999C14.3467 7.33332 13.52 6.99999 12.4 6.99999H8.32V14.32Z" fill="black"/>
<path d="M30.5091 27.4C29.3091 27.4 28.1891 27.1867 27.1491 26.76C26.1357 26.3333 25.3224 25.6667 24.7091 24.76C24.0957 23.8533 23.7891 22.7067 23.7891 21.32C23.7891 19.32 24.4557 17.7733 25.7891 16.68C27.1224 15.56 29.1357 15 31.8291 15H36.7491V14.64C36.7491 13.8933 36.4424 13.3467 35.8291 13C35.2157 12.6533 34.1357 12.48 32.5891 12.48C30.4024 12.48 28.2424 12.8133 26.1091 13.48V8.95999C27.0691 8.58665 28.2691 8.27999 29.7091 8.03999C31.1491 7.77332 32.6157 7.63999 34.1091 7.63999C37.1224 7.63999 39.5091 8.25332 41.2691 9.47999C43.0291 10.7067 43.9091 12.6533 43.9091 15.32V27H37.3491L36.9891 25.48C36.3224 26.0667 35.4557 26.5333 34.3891 26.88C33.3491 27.2267 32.0557 27.4 30.5091 27.4ZM33.0691 23C33.9224 23 34.6424 22.8533 35.2291 22.56C35.8424 22.2667 36.3491 21.9067 36.7491 21.48V19.12H33.1091C31.4557 19.12 30.6291 19.7733 30.6291 21.08C30.6291 22.36 31.4424 23 33.0691 23Z" fill="black"/>
<path d="M55.4434 27.4C52.9101 27.4 51.0701 26.76 49.9234 25.48C48.7768 24.2 48.2034 22.4667 48.2034 20.28V13.6H45.7234V8.03999H48.2034V4.15999L55.7234 2.35999V8.03999H60.0834L59.8034 13.6H55.7234V19.72C55.7234 20.52 55.9234 21.0933 56.3234 21.44C56.7234 21.76 57.3368 21.92 58.1634 21.92C58.9368 21.92 59.7234 21.7867 60.5234 21.52V26.52C59.1101 27.1067 57.4168 27.4 55.4434 27.4Z" fill="black"/>
<path d="M68.4388 27.4C67.2388 27.4 66.1188 27.1867 65.0788 26.76C64.0654 26.3333 63.2521 25.6667 62.6388 24.76C62.0254 23.8533 61.7188 22.7067 61.7188 21.32C61.7188 19.32 62.3854 17.7733 63.7188 16.68C65.0521 15.56 67.0654 15 69.7588 15H74.6788V14.64C74.6788 13.8933 74.3721 13.3467 73.7588 13C73.1454 12.6533 72.0654 12.48 70.5188 12.48C68.3321 12.48 66.1721 12.8133 64.0388 13.48V8.95999C64.9988 8.58665 66.1988 8.27999 67.6388 8.03999C69.0788 7.77332 70.5454 7.63999 72.0388 7.63999C75.0521 7.63999 77.4388 8.25332 79.1988 9.47999C80.9588 10.7067 81.8388 12.6533 81.8388 15.32V27H75.2788L74.9188 25.48C74.2521 26.0667 73.3854 26.5333 72.3188 26.88C71.2788 27.2267 69.9854 27.4 68.4388 27.4ZM70.9988 23C71.8521 23 72.5721 22.8533 73.1588 22.56C73.7721 22.2667 74.2788 21.9067 74.6788 21.48V19.12H71.0388C69.3854 19.12 68.5588 19.7733 68.5588 21.08C68.5588 22.36 69.3721 23 70.9988 23Z" fill="black"/>
<path d="M93.3731 27.4C90.8398 27.4 88.9998 26.76 87.8531 25.48C86.7065 24.2 86.1331 22.4667 86.1331 20.28V13.6H83.6531V8.03999H86.1331V4.15999L93.6531 2.35999V8.03999H98.0131L97.7331 13.6H93.6531V19.72C93.6531 20.52 93.8531 21.0933 94.2531 21.44C94.6531 21.76 95.2665 21.92 96.0931 21.92C96.8665 21.92 97.6531 21.7867 98.4531 21.52V26.52C97.0398 27.1067 95.3465 27.4 93.3731 27.4Z" fill="black"/>
<path d="M101.768 5.51999V0.0799866H109.888V5.51999H101.768ZM102.368 27V13.52H99.6084L100.248 8.03999H109.888V27H102.368Z" fill="black"/>
<path d="M112.695 27V22.88L120.655 13.8H112.975V8.03999H130.215V12.28L122.495 21.24H130.495V27H112.695Z" fill="black"/>
</svg>
