<svg width="312" height="28" viewBox="0 0 312 28" fill="none" xmlns="http://www.w3.org/2000/svg">
<path d="M9.88 27L0 1.24001H7.84L13.84 18.28L19.84 1.24001H27.72L17.84 27H9.88Z" fill="#080808"/>
<path d="M30.0497 5.52001V0.080008H38.1697V5.52001H30.0497ZM30.6497 27V13.52H27.8897L28.5297 8.04001H38.1697V27H30.6497Z" fill="#080808"/>
<path d="M52.1366 27.4C48.6966 27.4 45.9766 26.5867 43.9766 24.96C41.9766 23.3067 40.9766 20.8267 40.9766 17.52C40.9766 15.28 41.4432 13.4267 42.3766 11.96C43.3099 10.4933 44.6166 9.41334 46.2966 8.72001C47.9766 8.00001 49.9366 7.64001 52.1766 7.64001C53.5899 7.64001 54.8566 7.74668 55.9766 7.96001C57.0966 8.14668 58.1632 8.48001 59.1766 8.96001V14.24C57.6032 13.4933 55.8166 13.12 53.8166 13.12C52.1099 13.12 50.8166 13.44 49.9366 14.08C49.0832 14.72 48.6566 15.8667 48.6566 17.52C48.6566 19.0667 49.0699 20.1867 49.8966 20.88C50.7232 21.5733 52.0299 21.92 53.8166 21.92C54.7766 21.92 55.7099 21.8133 56.6166 21.6C57.5232 21.36 58.3899 21.0267 59.2166 20.6V26.12C58.2032 26.5733 57.1099 26.8933 55.9366 27.08C54.7899 27.2933 53.5232 27.4 52.1366 27.4Z" fill="#080808"/>
<path d="M70.1309 27.4C67.5976 27.4 65.7576 26.76 64.6109 25.48C63.4643 24.2 62.8909 22.4667 62.8909 20.28V13.6H60.4109V8.04001H62.8909V4.16001L70.4109 2.36001V8.04001H74.7709L74.4909 13.6H70.4109V19.72C70.4109 20.52 70.6109 21.0933 71.0109 21.44C71.4109 21.76 72.0243 21.92 72.8509 21.92C73.6243 21.92 74.4109 21.7867 75.2109 21.52V26.52C73.7976 27.1067 72.1043 27.4 70.1309 27.4Z" fill="#080808"/>
<path d="M87.4863 27.4C83.6996 27.4 80.8996 26.56 79.0863 24.88C77.2996 23.2 76.4062 20.7467 76.4062 17.52C76.4062 14.32 77.3129 11.88 79.1263 10.2C80.9396 8.49334 83.7262 7.64001 87.4863 7.64001C91.2729 7.64001 94.0729 8.49334 95.8863 10.2C97.7263 11.88 98.6462 14.32 98.6462 17.52C98.6462 20.7467 97.7396 23.2 95.9262 24.88C94.1129 26.56 91.2996 27.4 87.4863 27.4ZM87.4863 21.92C88.7129 21.92 89.5929 21.5733 90.1263 20.88C90.6862 20.1867 90.9662 19.0667 90.9662 17.52C90.9662 16 90.6862 14.8933 90.1263 14.2C89.5929 13.48 88.7129 13.12 87.4863 13.12C86.2863 13.12 85.4196 13.48 84.8863 14.2C84.3529 14.8933 84.0863 16 84.0863 17.52C84.0863 19.0667 84.3529 20.1867 84.8863 20.88C85.4196 21.5733 86.2863 21.92 87.4863 21.92Z" fill="#080808"/>
<path d="M101.464 27V8.04001H108.704L108.904 9.56001C109.677 9.10668 110.664 8.69334 111.864 8.32001C113.064 7.94668 114.277 7.72001 115.504 7.64001V13.24C114.811 13.2933 114.051 13.3867 113.224 13.52C112.424 13.6533 111.637 13.8267 110.864 14.04C110.117 14.2267 109.491 14.44 108.984 14.68V27H101.464Z" fill="#080808"/>
<path d="M125.839 27V1.24001H133.359V10.84H142.239V1.24001H149.759V27H142.239V17.4H133.359V27H125.839Z" fill="#080808"/>
<path d="M160.258 27.4C158.045 27.4 156.311 26.7733 155.058 25.52C153.805 24.2667 153.178 22.4267 153.178 20V8.04001H160.698V19.4C160.698 21.0533 161.538 21.88 163.218 21.88C163.831 21.88 164.431 21.7467 165.018 21.48C165.605 21.2133 166.071 20.88 166.418 20.48V8.04001H173.938V27H166.898L166.698 25.56C165.951 26.0933 165.031 26.5333 163.938 26.88C162.871 27.2267 161.645 27.4 160.258 27.4Z" fill="#080808"/>
<path d="M177.519 27V8.04001H184.479L184.679 9.56001C185.505 9.00001 186.425 8.54668 187.439 8.20001C188.479 7.82667 189.612 7.64001 190.839 7.64001C192.065 7.64001 193.025 7.81334 193.719 8.16001C194.412 8.50668 194.972 9.01334 195.399 9.68001C196.252 9.06667 197.212 8.57334 198.279 8.20001C199.372 7.82667 200.652 7.64001 202.119 7.64001C204.332 7.64001 205.959 8.22668 206.999 9.40001C208.039 10.5467 208.559 12.3067 208.559 14.68V27H201.159V15.56C201.159 14.7067 200.985 14.1067 200.639 13.76C200.292 13.3867 199.719 13.2 198.919 13.2C197.879 13.2 197.025 13.5733 196.359 14.32C196.412 14.6667 196.439 15 196.439 15.32C196.439 15.6133 196.439 15.9467 196.439 16.32V27H189.479V15.44C189.479 14.6667 189.345 14.1067 189.079 13.76C188.812 13.3867 188.305 13.2 187.559 13.2C187.052 13.2 186.559 13.3333 186.079 13.6C185.599 13.8667 185.172 14.1867 184.799 14.56V27H177.519Z" fill="#080808"/>
<path d="M224.612 27.4C223.385 27.4 222.305 27.24 221.372 26.92C220.465 26.5733 219.625 26.1067 218.852 25.52L218.492 27H211.972V0.0400085H219.492V8.72001C220.132 8.37334 220.879 8.10668 221.732 7.92001C222.612 7.73334 223.492 7.64001 224.372 7.64001C227.199 7.64001 229.412 8.40001 231.012 9.92001C232.639 11.4133 233.452 13.8933 233.452 17.36C233.452 20.7467 232.652 23.2667 231.052 24.92C229.452 26.5733 227.305 27.4 224.612 27.4ZM222.452 21.96C223.625 21.96 224.465 21.6133 224.972 20.92C225.505 20.2 225.772 19.04 225.772 17.44C225.772 15.8133 225.492 14.68 224.932 14.04C224.399 13.4 223.572 13.08 222.452 13.08C221.225 13.08 220.239 13.4133 219.492 14.08V20.8C220.319 21.5733 221.305 21.96 222.452 21.96Z" fill="#080808"/>
<path d="M246.709 27.4C244.495 27.4 242.535 27.04 240.829 26.32C239.149 25.5733 237.829 24.4667 236.869 23C235.935 21.5333 235.469 19.72 235.469 17.56C235.469 14.5467 236.322 12.1467 238.029 10.36C239.735 8.54668 242.282 7.64001 245.669 7.64001C248.762 7.64001 251.175 8.42668 252.909 10C254.669 11.5733 255.549 13.72 255.549 16.44V19.76H242.389C242.735 20.7733 243.415 21.4933 244.429 21.92C245.442 22.3467 246.815 22.56 248.549 22.56C249.642 22.56 250.735 22.4667 251.829 22.28C252.949 22.0667 253.842 21.8267 254.509 21.56V26.08C252.642 26.96 250.042 27.4 246.709 27.4ZM242.389 15.68H249.069V15C249.069 14.2533 248.829 13.64 248.349 13.16C247.895 12.68 247.082 12.44 245.909 12.44C244.602 12.44 243.682 12.72 243.149 13.28C242.642 13.8133 242.389 14.6133 242.389 15.68Z" fill="#080808"/>
<path d="M258.339 27V8.04001H265.579L265.779 9.56001C266.552 9.10668 267.539 8.69334 268.739 8.32001C269.939 7.94668 271.152 7.72001 272.379 7.64001V13.24C271.686 13.2933 270.926 13.3867 270.099 13.52C269.299 13.6533 268.512 13.8267 267.739 14.04C266.992 14.2267 266.366 14.44 265.859 14.68V27H258.339Z" fill="#080808"/>
<path d="M282.631 27.4C280.098 27.4 278.258 26.76 277.111 25.48C275.964 24.2 275.391 22.4667 275.391 20.28V13.6H272.911V8.04001H275.391V4.16001L282.911 2.36001V8.04001H287.271L286.991 13.6H282.911V19.72C282.911 20.52 283.111 21.0933 283.511 21.44C283.911 21.76 284.524 21.92 285.351 21.92C286.124 21.92 286.911 21.7867 287.711 21.52V26.52C286.298 27.1067 284.604 27.4 282.631 27.4Z" fill="#080808"/>
<path d="M299.986 27.4C296.2 27.4 293.4 26.56 291.586 24.88C289.8 23.2 288.906 20.7467 288.906 17.52C288.906 14.32 289.813 11.88 291.626 10.2C293.44 8.49334 296.226 7.64001 299.986 7.64001C303.773 7.64001 306.573 8.49334 308.386 10.2C310.226 11.88 311.146 14.32 311.146 17.52C311.146 20.7467 310.24 23.2 308.426 24.88C306.613 26.56 303.8 27.4 299.986 27.4ZM299.986 21.92C301.213 21.92 302.093 21.5733 302.626 20.88C303.186 20.1867 303.466 19.0667 303.466 17.52C303.466 16 303.186 14.8933 302.626 14.2C302.093 13.48 301.213 13.12 299.986 13.12C298.786 13.12 297.92 13.48 297.386 14.2C296.853 14.8933 296.586 16 296.586 17.52C296.586 19.0667 296.853 20.1867 297.386 20.88C297.92 21.5733 298.786 21.92 299.986 21.92Z" fill="#080808"/>
</svg>
